<svg width="280" height="274" viewBox="0 0 280 274" fill="none" xmlns="http://www.w3.org/2000/svg">
<g opacity="0.05" clip-path="url(#clip0_1009_25808)">
<path fill-rule="evenodd" clip-rule="evenodd" d="M35.8873 0.264648C16.0901 0.264648 0 16.3325 0 36.1022C0 52.909 11.6287 67.0404 27.2778 70.8987C26.8828 71.5562 26.4926 72.2182 26.1072 72.8848C14.3551 93.2058 8.43956 115.575 8.43956 139.834C8.43956 176.065 21.0593 207.413 46.2987 233.72C71.5382 260.106 103.245 273.26 141.42 273.26C177.859 273.26 208.856 260.421 234.411 234.744C259.966 209.146 272.744 177.719 272.744 140.7C272.744 114.589 266.416 91.2126 253.761 70.6259C268.883 66.41 280 52.5349 280 36.1022C280 16.3325 263.91 0.264648 244.113 0.264648C227.82 0.264648 214.038 11.1472 209.669 26.0197C189.305 13.1028 166.459 6.64437 141.104 6.64437C117.363 6.64437 95.2001 12.6304 74.6142 24.5238C73.2526 25.3104 71.9104 26.1156 70.5875 26.9395C66.5259 11.5981 52.514 0.264648 35.8873 0.264648ZM35.8873 49.9646C28.2366 49.9646 22.0056 43.7423 22.0056 36.1022C22.0056 28.4621 28.2366 22.2398 35.8873 22.2398C43.538 22.2398 49.769 28.4621 49.769 36.1022C49.769 43.7423 43.538 49.9646 35.8873 49.9646ZM140.552 53.9814C117.048 53.9814 97.2508 62.1729 81.1607 78.477C65.1494 94.7811 57.1044 115.575 57.1044 140.779C57.1044 168.898 67.2001 191.109 87.3917 207.413C103.087 220.173 121.071 226.553 141.341 226.553C164.293 226.553 183.854 218.283 200.023 201.664C216.192 185.123 224.237 164.645 224.237 140.385C224.237 116.205 216.113 95.7263 199.865 79.0283C183.696 62.3304 163.899 53.9814 140.552 53.9814ZM230.231 36.1022C230.231 43.7423 236.462 49.9646 244.113 49.9646C251.764 49.9646 257.995 43.7423 257.995 36.1022C257.995 28.4621 251.764 22.2398 244.113 22.2398C236.462 22.2398 230.231 28.4621 230.231 36.1022Z" fill="#787878"/>
</g>
<defs>
<clipPath id="clip0_1009_25808">
<rect width="280" height="273.074" fill="white" transform="translate(0 0.264648)"/>
</clipPath>
</defs>
</svg>
